<svg width="508" height="508" viewBox="0 0 508 508" fill="none" xmlns="http://www.w3.org/2000/svg">
<g clip-path="url(#clip0_400_600)">
<g clip-path="url(#clip1_400_600)">
<path d="M254 508C394.28 508 508 394.28 508 254C508 113.72 394.28 0 254 0C113.72 0 0 113.72 0 254C0 394.28 113.72 508 254 508Z" fill="#020202"></path>
<path d="M210.886 315.203C211.243 316.877 211.901 318.468 212.917 319.95C215.139 323.298 219.31 325.439 223.672 325.439C228.035 325.439 232.206 323.298 234.346 319.95C236.294 317.069 237.035 314.187 237.035 309.275V217.176C237.035 206.418 234.895 197.032 230.724 189.321C221.45 172.141 202.325 163.14 175.408 163.14C173.268 163.14 171.32 163.222 169.372 163.332C168.521 163.332 167.89 163.414 167.039 163.414C168.164 162.399 169.262 161.274 170.469 160.176C192.749 139.841 221.34 128.616 251.221 128.616C254.019 128.616 256.763 128.726 259.562 128.946C260.358 129.11 261.181 129.22 262.059 129.22C268.562 129.22 273.83 123.951 273.83 117.447C273.83 110.943 268.562 105.674 262.059 105.674C261.785 105.674 261.538 105.729 261.291 105.756V105.674C257.943 105.427 254.623 105.125 251.248 105.125C195.822 105.125 145.994 135.944 121.025 185.534C120.943 185.808 120.833 186 120.668 186.467L122.534 187.125L120.504 186.933C119.571 189.43 118.556 193.327 118.912 196.95C119.296 200.655 120.943 203.646 123.824 205.293C123.906 205.485 124.098 205.567 124.29 205.649C126.046 206.473 128.187 206.939 130.217 206.939C131.424 206.939 133.18 206.857 134.854 206.198C135.513 206.006 136.061 205.649 136.61 205.375L137.159 205.101C137.159 205.101 137.433 204.908 137.625 204.826C137.9 204.826 138.009 204.744 138.174 204.552C138.833 204.195 139.381 203.811 140.04 203.262C140.698 202.713 141.329 202.137 141.988 201.505C151.372 191.955 158.424 187.674 175.408 187.674C200.185 187.674 210.228 197.334 210.228 220.825L210.31 229.635H167.039C151.262 229.635 137.79 233.449 128.132 240.694C127.94 240.777 127.775 240.969 127.583 241.051C126.375 241.984 125.251 242.917 124.043 244.015L122.452 245.689C122.452 245.689 122.26 245.771 122.26 245.881C121.711 246.43 121.245 246.897 120.668 247.555C120.12 248.214 119.653 248.845 118.995 249.888L119.187 250.08C118.995 250.08 118.912 250.272 118.72 250.354L118.638 250.272C117.897 251.287 117.238 252.221 116.772 253.154C116.772 253.154 116.69 253.236 116.69 253.346C116.607 253.428 116.498 253.538 116.498 253.62C112.958 259.273 110.845 265.97 110.104 273.407L109.912 276.288C109.83 277.111 109.83 277.962 109.83 278.786C109.83 281.283 110.022 283.615 110.297 285.921C110.379 286.195 110.379 286.387 110.379 286.662C115.482 323.051 155.598 325.384 155.598 325.384C157.079 325.466 158.753 325.658 160.427 325.741C163.582 326.015 167.012 326.125 170.552 326.125C180.1 326.125 188.194 325.11 195.164 322.969C201.008 321.213 206.112 318.606 210.859 315.258M170.579 301.454C140.973 301.454 137.159 288.83 137.159 277.88C137.159 271.76 138.641 266.738 141.439 263.033C146.186 256.639 155.186 253.483 168.082 253.483H210.31V267.122C210.31 272.501 209.843 277.331 208.828 281.228C207.703 285.784 205.947 289.296 203.642 291.547C199.005 296.102 193.627 298.792 186.466 300.191C181.006 301.316 175.326 301.481 170.606 301.481L170.579 301.454Z" fill="white"></path>
<path d="M363.695 158.847C362.817 157.365 361.665 156.131 360.293 155.143C360.293 155.143 360.266 155.115 360.211 155.061C358.73 154.155 357.084 153.414 355.329 153.222C354.588 153.03 353.847 152.948 353.107 152.948C346.112 152.948 340.489 158.573 340.489 165.57C340.489 169.246 342.053 172.429 344.521 174.707C361.555 196.027 371.842 222.752 371.842 251.316C371.842 281.306 360.897 310.089 341.23 332.534C334.18 340.519 326.198 347.571 317.283 353.525C315.802 354.54 314.211 355.555 312.648 356.406C319.423 343.976 323.126 329.022 323.126 312.038V130.887C323.126 122.71 316.543 116.125 308.286 116.125C300.03 116.125 293.529 122.71 293.529 130.887V308.086C293.529 348.476 273.204 371.113 237.49 371.113C223.857 371.113 214.12 368.232 203.532 360.824C198.156 356.927 194.261 355.171 190.256 355.171C186.827 355.171 183.947 356.378 181.259 359.26C178.927 361.756 177.83 365.022 177.83 368.644C177.83 373.83 180.244 377.561 185.456 381.348C185.456 381.348 185.538 381.348 185.538 381.43C185.62 381.43 185.62 381.512 185.73 381.512C203.916 390.704 224.159 396.082 245.225 396.933C247.173 397.125 249.203 397.125 251.15 397.125C288.921 397.125 324.745 382.637 352.01 356.461C362.488 346.446 371.403 334.839 378.534 322.025C390.494 300.568 396.83 276.175 396.83 251.288C396.83 216.414 384.541 184.118 363.722 158.847" fill="white"></path>
</g>
</g>
<defs>
<clipPath id="clip0_400_600">
<rect width="508" height="508" fill="white"></rect>
</clipPath>
<clipPath id="clip1_400_600">
<rect width="508" height="508" fill="white"></rect>
</clipPath>
</defs>
</svg>