<svg width="162" height="82" viewBox="0 0 162 82" fill="none" xmlns="http://www.w3.org/2000/svg">
<path d="M141.306 25.2166C141.345 25.4176 141.419 25.6086 141.531 25.7865C141.779 26.1884 142.242 26.4453 142.727 26.4453C143.213 26.4453 143.676 26.1884 143.914 25.7865C144.131 25.4406 144.213 25.0947 144.213 24.5051V13.45C144.213 12.1587 143.975 11.0321 143.512 10.1064C142.48 8.04428 140.354 6.96381 137.361 6.96381C137.123 6.96381 136.906 6.97369 136.69 6.98687C136.595 6.98687 136.525 6.99675 136.43 6.99675C136.555 6.87487 136.677 6.73981 136.812 6.60804C139.289 4.16709 142.468 2.81978 145.791 2.81978C146.102 2.81978 146.407 2.83296 146.718 2.85931C146.807 2.87908 146.898 2.89225 146.996 2.89225C147.719 2.89225 148.304 2.25978 148.304 1.47907C148.304 0.698357 147.719 0.0658827 146.996 0.0658827C146.965 0.0658827 146.938 0.0724712 146.91 0.0757653V0.0658827C146.538 0.0362355 146.169 0 145.794 0C139.631 0 134.09 3.69932 131.314 9.65182C131.305 9.68477 131.293 9.70782 131.274 9.76383L131.482 9.84289L131.256 9.81983C131.152 10.1196 131.039 10.5874 131.079 11.0222C131.122 11.4669 131.305 11.826 131.625 12.0236C131.634 12.0467 131.656 12.0565 131.677 12.0664C131.872 12.1653 132.11 12.2213 132.336 12.2213C132.47 12.2213 132.666 12.2114 132.852 12.1323C132.925 12.1093 132.986 12.0664 133.047 12.0335L133.108 12.0005C133.108 12.0005 133.138 11.9775 133.16 11.9676C133.19 11.9676 133.203 11.9577 133.221 11.9347C133.294 11.8918 133.355 11.8457 133.428 11.7798C133.501 11.714 133.572 11.6448 133.645 11.569C134.688 10.4227 135.472 9.90877 137.361 9.90877C140.116 9.90877 141.232 11.0683 141.232 13.8881L141.242 14.9455H136.43C134.676 14.9455 133.178 15.4034 132.104 16.273C132.083 16.2829 132.065 16.306 132.043 16.3159C131.909 16.4279 131.784 16.5399 131.65 16.6716L131.473 16.8726C131.473 16.8726 131.451 16.8825 131.451 16.8956C131.39 16.9615 131.338 17.0175 131.274 17.0966C131.213 17.1756 131.161 17.2514 131.088 17.3766L131.11 17.3996C131.088 17.3996 131.079 17.4227 131.058 17.4326L131.049 17.4227C130.966 17.5446 130.893 17.6566 130.841 17.7686C130.841 17.7686 130.832 17.7785 130.832 17.7916C130.823 17.8015 130.811 17.8147 130.811 17.8246C130.417 18.5032 130.182 19.3069 130.1 20.1997L130.078 20.5455C130.069 20.6444 130.069 20.7465 130.069 20.8453C130.069 21.1451 130.091 21.4251 130.121 21.7018C130.13 21.7347 130.13 21.7578 130.13 21.7907C130.698 26.1587 135.158 26.4387 135.158 26.4387C135.323 26.4486 135.509 26.4717 135.695 26.4816C136.046 26.5145 136.427 26.5277 136.821 26.5277C137.883 26.5277 138.783 26.4058 139.558 26.1489C140.207 25.938 140.775 25.6251 141.303 25.2232M136.824 23.5729C133.532 23.5729 133.108 22.0575 133.108 20.7432C133.108 20.0086 133.273 19.4058 133.584 18.9611C134.112 18.1935 135.112 17.8147 136.546 17.8147H141.242V19.4519C141.242 20.0975 141.19 20.6773 141.077 21.1451C140.952 21.6919 140.757 22.1135 140.5 22.3837C139.985 22.9305 139.387 23.2533 138.59 23.4213C137.983 23.5564 137.352 23.5761 136.827 23.5761L136.824 23.5729Z" fill="#101010"></path>
<path d="M158.315 6.39392C158.217 6.21604 158.089 6.0678 157.936 5.94921C157.936 5.94921 157.933 5.94592 157.927 5.93933C157.762 5.83062 157.579 5.74168 157.384 5.71862C157.302 5.69556 157.219 5.68568 157.137 5.68568C156.359 5.68568 155.733 6.36098 155.733 7.20098C155.733 7.6424 155.907 8.02452 156.182 8.29793C158.077 10.8575 159.221 14.066 159.221 17.4952C159.221 21.0957 158.003 24.5512 155.816 27.2458C155.032 28.2044 154.144 29.051 153.152 29.7658C152.988 29.8877 152.811 30.0096 152.637 30.1117C153.39 28.6195 153.802 26.8242 153.802 24.7851V3.04049C153.802 2.05884 153.07 1.26824 152.152 1.26824C151.233 1.26824 150.51 2.05884 150.51 3.04049V24.314C150.51 29.163 148.25 31.8807 144.277 31.8807C142.761 31.8807 141.678 31.5348 140.5 30.6454C139.902 30.1776 139.469 29.9668 139.024 29.9668C138.642 29.9668 138.322 30.1117 138.023 30.4576C137.764 30.7574 137.642 31.1494 137.642 31.5842C137.642 32.2068 137.91 32.6548 138.49 33.1094C138.49 33.1094 138.499 33.1094 138.499 33.1193C138.508 33.1193 138.508 33.1291 138.52 33.1291C140.543 34.2327 142.795 34.8783 145.138 34.9804C145.354 35.0035 145.58 35.0035 145.797 35.0035C149.998 35.0035 153.982 33.2642 157.015 30.1216C158.18 28.9192 159.172 27.5258 159.965 25.9875C161.295 23.4114 162 20.483 162 17.4952C162 13.3083 160.633 9.43112 158.318 6.39722" fill="#101010"></path>
<path d="M134.389 80.9205C135.1 81.4575 135.93 81.7342 137.132 81.7342C139.03 81.7342 140.336 80.7822 140.336 79.1417C140.336 77.5012 139.396 76.9774 138.017 76.8391L136.76 76.7106C135.817 76.6151 135.381 76.2527 135.381 75.4852C135.381 74.5859 136.018 74.0852 137.132 74.0852C137.803 74.0852 138.371 74.2499 138.886 74.5431C139.079 74.6551 139.198 74.7078 139.326 74.7078C139.469 74.7078 139.588 74.6485 139.695 74.5266C139.768 74.4311 139.826 74.2927 139.826 74.1906C139.826 74.0687 139.811 73.9831 139.734 73.8711C139.661 73.7657 139.551 73.6701 139.344 73.5581C138.731 73.2221 138.026 73.0212 137.15 73.0212C135.469 73.0212 134.264 73.9732 134.264 75.5214C134.264 76.9214 135.088 77.656 136.61 77.7977L137.904 77.9262C138.795 78.0118 139.21 78.4005 139.21 79.1615C139.21 80.1629 138.453 80.657 137.123 80.657C136.253 80.657 135.622 80.4594 135.057 80.0179C134.85 79.8532 134.673 79.7775 134.53 79.7775C134.402 79.7775 134.283 79.8203 134.194 79.9059C134.075 80.0278 134.011 80.1892 134.011 80.3375C134.011 80.5714 134.17 80.7624 134.395 80.9271L134.389 80.9205ZM128.962 73.0311C128.001 73.0311 127.241 73.4099 126.698 73.9995C125.883 74.8988 125.731 76.0716 125.731 77.3859C125.731 78.7003 125.883 79.873 126.698 80.7723C127.241 81.3587 128.001 81.7408 128.962 81.7408C129.923 81.7408 130.682 81.3619 131.226 80.7723C132.04 79.873 132.193 78.6904 132.193 77.3859C132.193 76.0814 132.04 74.8988 131.226 73.9995C130.682 73.4132 129.923 73.0311 128.962 73.0311ZM128.962 80.6142C128.379 80.6142 127.921 80.4165 127.537 80.0015C126.985 79.4052 126.896 78.3676 126.896 77.3859C126.896 76.4043 126.985 75.3732 127.537 74.777C127.921 74.3619 128.376 74.1544 128.962 74.1544C129.548 74.1544 130.002 74.3619 130.387 74.777C130.939 75.3732 131.027 76.401 131.027 77.3859C131.027 78.3709 130.939 79.4052 130.387 80.0015C130.002 80.4165 129.548 80.6142 128.962 80.6142ZM118.079 77.3826C118.079 80.2782 119.55 81.7309 121.557 81.7309C122.357 81.7309 122.942 81.497 123.476 81.0391C123.812 80.7624 124.038 80.5351 124.038 80.2255C124.038 80.0772 123.974 79.9323 123.87 79.8203C123.775 79.7248 123.647 79.6655 123.51 79.6655C123.333 79.6655 123.141 79.8137 122.948 79.9949C122.451 80.4659 122.076 80.6142 121.557 80.6142C120.788 80.6142 120.172 80.2946 119.757 79.6655C119.388 79.1055 119.245 78.4565 119.245 77.3859C119.245 76.3153 119.388 75.6631 119.757 75.0998C120.172 74.464 120.788 74.1544 121.557 74.1544C122.076 74.1544 122.43 74.3026 122.948 74.7671C123.214 75.0076 123.333 75.0998 123.51 75.0998C123.647 75.0998 123.775 75.0405 123.87 74.945C123.974 74.833 124.038 74.6847 124.038 74.5398C124.038 74.2301 123.855 74.0523 123.476 73.7327C122.909 73.2485 122.357 73.0344 121.557 73.0344C119.55 73.0344 118.079 74.4805 118.079 77.3859V77.3826ZM114.205 69.9445C114.205 70.4188 114.555 70.8009 114.998 70.8009C115.44 70.8009 115.791 70.4221 115.791 69.9445C115.791 69.4668 115.44 69.088 114.998 69.088C114.555 69.088 114.205 69.4668 114.205 69.9445ZM115.58 73.9073C115.58 73.6042 115.565 73.4857 115.477 73.3275C115.388 73.1727 115.214 73.0607 114.998 73.0607C114.781 73.0607 114.607 73.1727 114.519 73.3275C114.43 73.4824 114.415 73.6042 114.415 73.9073V80.8513C114.415 81.1544 114.43 81.273 114.519 81.4311C114.607 81.5859 114.784 81.698 114.998 81.698C115.211 81.698 115.388 81.5859 115.477 81.4311C115.565 81.2763 115.58 81.1544 115.58 80.8513V73.9073ZM110.778 70.1059C110.778 69.8028 110.763 69.6842 110.675 69.5261C110.586 69.3713 110.409 69.2593 110.196 69.2593C109.982 69.2593 109.805 69.3713 109.717 69.5261C109.628 69.6809 109.613 69.8028 109.613 70.1059V79.3459C109.613 80.6076 110.278 81.6255 111.611 81.6255H111.819C112.084 81.6255 112.234 81.5925 112.337 81.5234C112.475 81.4278 112.554 81.2829 112.554 81.0819C112.554 80.881 112.475 80.7361 112.337 80.6405C112.234 80.5714 112.081 80.5384 111.819 80.5384C111.108 80.5384 110.778 80.0805 110.778 79.3031V70.1059ZM105.833 70.3694C105.696 70.5934 105.65 70.7153 105.641 70.8602C105.631 71.0579 105.72 71.2325 105.906 71.3543C106.001 71.4235 106.098 71.4499 106.193 71.4499C106.306 71.4499 106.394 71.4169 106.48 71.3478C106.574 71.2687 106.657 71.1468 106.745 70.992L107.56 69.5821C107.697 69.3581 107.743 69.2362 107.752 69.0913C107.761 68.8936 107.673 68.719 107.486 68.5972C107.392 68.528 107.294 68.5016 107.2 68.5016C107.087 68.5016 106.998 68.5346 106.913 68.6038C106.818 68.6828 106.736 68.8047 106.647 68.9595L105.833 70.3694ZM106.711 73.904C106.711 73.601 106.696 73.4824 106.608 73.3242C106.519 73.1694 106.345 73.0574 106.129 73.0574C105.912 73.0574 105.738 73.1694 105.65 73.3242C105.561 73.4791 105.546 73.601 105.546 73.904V80.8481C105.546 81.1511 105.561 81.2697 105.65 81.4278C105.738 81.5826 105.915 81.6946 106.129 81.6946C106.342 81.6946 106.519 81.5826 106.608 81.4278C106.696 81.273 106.711 81.1511 106.711 80.8481V73.904ZM99.9263 73.904C99.9263 73.601 99.911 73.4824 99.8226 73.3242C99.7341 73.1694 99.5602 73.0574 99.3436 73.0574C99.1269 73.0574 98.953 73.1694 98.8646 73.3242C98.7761 73.4791 98.7608 73.601 98.7608 73.904V80.8481C98.7608 81.1511 98.7761 81.2697 98.8646 81.4278C98.953 81.5826 99.13 81.6946 99.3436 81.6946C99.5571 81.6946 99.7371 81.5826 99.8226 81.4278C99.911 81.273 99.9263 81.1511 99.9263 80.8481V76.4405C99.9263 75.1031 100.662 74.1478 101.83 74.1478C102.19 74.1478 102.516 74.2598 102.812 74.4508C103.099 74.6386 103.227 74.6979 103.365 74.6979C103.517 74.6979 103.661 74.6287 103.764 74.5167C103.859 74.4146 103.932 74.24 103.932 74.0753C103.932 73.7953 103.731 73.5977 103.493 73.433C103.069 73.1464 102.635 73.0278 102.077 73.0278C101.214 73.0278 100.366 73.456 99.9263 74.1478V73.904ZM90.4837 77.376C90.4837 80.2716 91.9543 81.7243 93.9618 81.7243C94.7611 81.7243 95.3469 81.4904 95.8808 81.0325C96.2164 80.7558 96.4421 80.5285 96.4421 80.2189C96.4421 80.0706 96.3781 79.9257 96.2743 79.8137C96.1798 79.7182 96.0516 79.6589 95.9143 79.6589C95.7374 79.6589 95.5452 79.8071 95.353 79.9883C94.8557 80.4594 94.4804 80.6076 93.9618 80.6076C93.1929 80.6076 92.5766 80.2881 92.1617 79.6589C91.7926 79.0989 91.6492 78.4499 91.6492 77.3793C91.6492 76.3087 91.7926 75.6565 92.1617 75.0932C92.5766 74.4574 93.1929 74.1478 93.9618 74.1478C94.4804 74.1478 94.8343 74.296 95.353 74.7605C95.6184 75.001 95.7374 75.0932 95.9143 75.0932C96.0516 75.0932 96.1798 75.0339 96.2743 74.9384C96.3781 74.8264 96.4421 74.6781 96.4421 74.5332C96.4421 74.2235 96.2591 74.0457 95.8808 73.7261C95.3133 73.2419 94.7611 73.0278 93.9618 73.0278C91.9543 73.0278 90.4837 74.4739 90.4837 77.3793V77.376ZM84.5833 71.3708L86.7281 77.7022H82.4324L84.5833 71.3708ZM80.193 80.6043C80.0802 80.9337 80.0008 81.2335 80.2419 81.4937C80.3547 81.6156 80.5134 81.6914 80.6903 81.6914C80.8093 81.6914 80.913 81.6485 81.0015 81.5794C81.1297 81.4674 81.1846 81.3718 81.2975 81.0523L82.048 78.8419H87.1125L87.863 81.0523C87.9759 81.3718 88.0308 81.4674 88.1589 81.5794C88.2474 81.6485 88.3512 81.6914 88.4701 81.6914C88.6471 81.6914 88.8057 81.6123 88.9186 81.4937C89.1596 81.2335 89.0864 80.9337 88.9735 80.6043L85.2789 69.9478C85.1904 69.6875 85.1263 69.5854 85.0379 69.4734C84.925 69.3449 84.7816 69.256 84.5833 69.256C84.385 69.256 84.2385 69.3416 84.1287 69.4734C84.0402 69.5854 83.9762 69.6974 83.8877 69.9478L80.193 80.6043Z" fill="#101010"></path>
<path d="M15.2057 26.7945C14.5803 26.7945 14.0647 27.1075 13.7992 27.5687C13.5277 28.0266 13.485 28.3395 13.485 29.3113V50.4596C13.485 55.5359 11.1144 58.382 6.95301 58.382C5.36959 58.382 4.22855 58.0164 2.99904 57.0808C2.3736 56.5966 1.92207 56.3792 1.45528 56.3792C1.05256 56.3792 0.716963 56.5241 0.402719 56.8832C0.137291 57.2027 0 57.6112 0 58.0691C0 58.7213 0.289836 59.1792 0.893915 59.6602C2.61463 61.0371 4.5428 61.663 6.95301 61.663C12.7955 61.663 16.9264 57.5585 16.9264 50.9439V29.3113C16.9264 28.3395 16.8868 28.0266 16.6122 27.5687C16.3467 27.1075 15.8311 26.7945 15.2057 26.7945Z" fill="#101010"></path>
<path d="M62.5313 29.9866C66.0673 29.9866 68.5508 32.0849 69.6918 35.7315C69.8932 36.3838 70.1342 36.9372 70.4973 37.2765C70.7383 37.5203 71.1013 37.6586 71.5498 37.6586C71.977 37.6586 72.3766 37.517 72.6908 37.181C73.0051 36.8417 73.1332 36.4332 73.1332 35.8271C73.1332 34.7169 72.4407 32.5659 71.0983 30.8299C69.2891 28.435 66.6714 26.699 62.5558 26.699C59.2913 26.699 56.5851 27.9574 54.6387 30.0821C51.6183 33.3631 51.3925 36.2882 51.3925 44.1843C51.3925 52.0803 51.6183 54.999 54.6387 58.2865C56.5851 60.4112 59.2913 61.663 62.5558 61.663C66.6714 61.663 69.2891 59.927 71.0983 57.5387C72.4407 55.7961 73.1332 53.6516 73.1332 52.5415C73.1332 51.9354 73.002 51.5269 72.6908 51.1876C72.3766 50.8483 71.977 50.7034 71.5498 50.7034C71.1013 50.7034 70.7383 50.8516 70.4973 51.0921C70.1373 51.4314 69.8932 51.9848 69.6918 52.6371C68.5508 56.2837 66.0673 58.382 62.5313 58.382C60.3866 58.382 58.5286 57.5387 57.0733 55.918C55.0383 53.6714 54.837 51.1382 54.837 44.1843C54.837 37.2304 55.0383 34.6939 57.0733 32.444C58.5286 30.8299 60.3835 29.9866 62.5313 29.9866Z" fill="#101010"></path>
<path d="M94.8069 45.7721C98.9225 44.8332 101.766 41.572 101.766 36.5485C101.766 30.6124 97.8517 26.9856 92.2838 26.9856H82.109C81.572 26.9856 80.968 26.9856 80.4951 27.4962C80.0283 28.0002 80.0283 28.659 80.0283 29.2322V59.054C80.0283 60.0192 80.0679 60.3322 80.3425 60.79C80.608 61.2512 81.1236 61.5642 81.749 61.5642C82.3744 61.5642 82.89 61.2512 83.1555 60.79C83.427 60.3289 83.4697 60.0159 83.4697 59.054V30.2732H91.9726C95.6855 30.2732 98.3215 32.3979 98.3215 36.5979C98.3215 40.7979 95.6855 42.8732 91.9726 42.8732H87.2132V42.8798C86.4138 42.9095 85.7731 43.6144 85.7731 44.4841C85.7731 45.3537 86.4138 46.0587 87.2132 46.0883V46.1114H91.0573L98.4344 60.0456C98.8615 60.8428 99.3039 61.5642 100.18 61.5642C100.445 61.5642 100.784 61.4686 101.055 61.3006C101.61 60.9613 101.925 60.4508 101.925 59.871C101.925 59.3933 101.812 58.9849 101.412 58.2041L94.813 45.7688L94.8069 45.7721Z" fill="#101010"></path>
<path d="M110.019 26.7945C109.393 26.7945 108.878 27.1075 108.612 27.5687C108.341 28.0266 108.298 28.3395 108.298 29.3113V59.0573C108.298 60.0225 108.338 60.3355 108.612 60.7933C108.878 61.2545 109.393 61.5675 110.019 61.5675C110.644 61.5675 111.16 61.2545 111.425 60.7933C111.697 60.3322 111.739 60.0192 111.739 59.0573V29.3113C111.739 28.3395 111.7 28.0266 111.425 27.5687C111.16 27.1075 110.644 26.7945 110.019 26.7945Z" fill="#101010"></path>
<path d="M139.024 58.3787C138.691 58.1613 138.395 58.0921 137.55 58.0921H123.278V29.3113C123.278 28.3395 123.235 28.0266 122.964 27.5687C122.698 27.1075 122.183 26.7978 121.557 26.7978C120.932 26.7978 120.416 27.1108 120.151 27.5687C119.879 28.0298 119.836 28.3428 119.836 29.3113V59.1265C119.836 59.7063 119.836 60.3585 120.303 60.8691C120.776 61.3731 121.38 61.3731 121.917 61.3731H137.55C138.395 61.3731 138.691 61.3039 139.024 61.0865C139.426 60.7933 139.673 60.3157 139.673 59.7326C139.673 59.1496 139.426 58.6653 139.024 58.3787Z" fill="#101010"></path>
<path d="M42.49 30.0821C40.5282 27.9804 37.8434 26.699 34.5332 26.699C31.223 26.699 28.5382 27.9804 26.5703 30.0821C23.9893 32.8623 23.4676 35.5965 23.3699 41.2097C23.3516 42.2539 24.1296 43.1137 25.0967 43.1137C26.0639 43.1137 26.7991 42.3 26.8205 41.2854C26.9181 36.4892 27.3636 34.292 29.0294 32.4407C30.4846 30.8266 32.364 29.9833 34.5332 29.9833C36.7024 29.9833 38.5756 30.8266 40.0309 32.4407C42.0232 34.6445 42.2703 37.1019 42.2703 44.181C42.2703 51.2601 42.0232 53.7175 40.0309 55.9147C38.5756 57.5354 36.7024 58.3787 34.5332 58.3787C32.364 58.3787 30.4846 57.5354 29.0294 55.9147C27.4368 54.1524 26.9608 51.7905 26.8358 47.4389C26.8052 46.4309 26.0456 45.6271 25.112 45.6271C24.1418 45.6271 23.3608 46.4968 23.3852 47.5443C23.5133 52.7128 24.0899 55.6051 26.5703 58.2832C28.5382 60.3816 31.223 61.6597 34.5332 61.6597C37.8434 61.6597 40.5282 60.3816 42.49 58.2832C45.5103 55.022 45.7117 52.077 45.7117 44.181C45.7117 36.285 45.5103 33.3367 42.49 30.0788" fill="#101010"></path>
</svg>