<?xml version="1.0" encoding="UTF-8"?>
<svg id="Layer_2" data-name="Layer 2" xmlns="http://www.w3.org/2000/svg" viewBox="0 0 387.34 144.71">
  <defs>
    
  </defs>
  <g id="Layer_1-2" data-name="Layer 1">
    <g>
      <path class="cls-2" d="M72.36,0C32.4,0,0,32.4,0,72.36s32.4,72.36,72.36,72.36,72.36-32.4,72.36-72.36S112.32,0,72.36,0ZM90.14,86.4c0,10.58-7.68,18.27-18.27,18.27s-18.18-7.68-18.18-18.27v-29.63c0-3.77-3.19-6.96-6.96-6.96s-6.87,3.12-6.87,6.96v45.42h-11.3v-43.87c0-10.58,7.64-18.27,18.18-18.27s18.27,7.68,18.27,18.27v29.64c0,3.84,3.08,6.96,6.87,6.96s6.97-3.19,6.97-6.96v-47.9h11.3v46.34ZM108.23,105.23c-4.71,0-8.5-3.79-8.5-8.5s3.79-8.5,8.5-8.5,8.5,3.79,8.5,8.5-3.79,8.5-8.5,8.5Z"></path>
      <g>
        <g>
          <path class="cls-1" d="M174.91,108.85h7.12c3.38,0,5.67,1.8,5.67,5.06,0,1.98-.71,3.33-2.16,4.04,1.73.59,2.98,2.21,2.98,4.65,0,3.43-2.37,5.26-5.82,5.26h-7.78v-19.02ZM177.23,110.91v6.2h5.16c1.96,0,2.95-1.02,2.95-3.05s-1.42-3.15-3.58-3.15h-4.53ZM177.23,119.12v6.69h5.19c2.21,0,3.74-1.07,3.74-3.33s-1.52-3.36-3.53-3.36h-5.39Z"></path>
          <path class="cls-1" d="M197.6,116.86c-2.26,0-3.76,1.53-3.76,3.56v7.45h-2.19v-12.97h2.14v1.96c.51-1.19,1.8-2.11,3.81-2.11v2.11Z"></path>
          <path class="cls-1" d="M209.12,119.71v8.16h-2.21v-1.52c-.99,1.19-2.29,1.78-3.86,1.78-2.57,0-4.25-1.37-4.25-3.69s1.58-3.69,4.76-3.86l3.35-.2v-.61c0-2.11-.92-3.15-2.72-3.15s-2.82,1.19-2.82,2.69l-2.21-.1c0-1.2.46-2.24,1.37-3.15.92-.91,2.14-1.37,3.63-1.37,3.18,0,4.96,1.8,4.96,5.03ZM206.93,122.12l-3.1.2c-1.88.13-2.82.81-2.82,2.06s.79,1.86,2.36,1.86c2.14,0,3.56-1.14,3.56-3.58v-.53Z"></path>
          <path class="cls-1" d="M222.42,116.12c.94.97,1.42,2.26,1.42,3.86v7.88h-2.21v-7.6c0-2.14-1.32-3.56-3.28-3.56-1.02,0-1.86.36-2.52,1.04-.64.69-.97,1.55-.97,2.54v7.58h-2.19v-12.97h2.08v1.93c.69-1.24,2.11-2.16,4.04-2.16,1.47,0,2.67.48,3.61,1.45Z"></path>
          <path class="cls-1" d="M239.52,127.87h-2.06v-2.11c-.79,1.4-2.47,2.37-4.6,2.37-1.8,0-3.31-.61-4.5-1.81-1.17-1.22-1.75-2.85-1.75-4.91s.59-3.69,1.75-4.91c1.19-1.22,2.7-1.83,4.5-1.83,2.11,0,3.74.89,4.47,2.19v-8.74h2.19v19.75ZM228.82,121.38c0,3.05,1.8,4.83,4.35,4.83s4.17-1.6,4.17-4.45v-.76c0-2.85-1.7-4.42-4.17-4.42s-4.35,1.78-4.35,4.8Z"></path>
          <path class="cls-1" d="M253.29,117.04v-2.14h2.06v13.7c0,1.86-.56,3.3-1.7,4.37-1.12,1.07-2.62,1.6-4.5,1.6-3.53,0-5.75-1.83-6.28-4.6l2.19-.08c.31,1.73,1.91,2.82,4.02,2.82,2.47,0,4.09-1.45,4.09-3.97v-2.82c-.74,1.3-2.36,2.19-4.47,2.19-1.8,0-3.31-.61-4.5-1.83-1.17-1.22-1.75-2.85-1.75-4.91s.59-3.69,1.75-4.88c1.19-1.22,2.7-1.83,4.5-1.83,2.14,0,3.81.97,4.6,2.36ZM244.65,121.41c0,3.03,1.8,4.81,4.35,4.81s4.17-1.58,4.17-4.42v-.76c0-2.85-1.7-4.45-4.17-4.45s-4.35,1.78-4.35,4.83Z"></path>
          <path class="cls-1" d="M260.08,111.65c-.81,0-1.45-.64-1.45-1.42s.66-1.45,1.45-1.45,1.45.64,1.45,1.45-.66,1.42-1.45,1.42ZM261.15,127.87h-2.19v-12.97h2.19v12.97Z"></path>
          <path class="cls-1" d="M271.19,108.06v1.91c-.28-.03-.51-.05-.74-.05-1.6,0-2.64,1.04-2.64,2.77v2.21h6.82v1.91h-6.82v11.06h-2.19v-11.06h-2.52v-1.91h2.52v-2.16c0-2.95,1.78-4.73,4.6-4.73.28,0,.58.03.97.05Z"></path>
          <path class="cls-1" d="M280.32,125.94v1.96c-.59.1-1.17.15-1.75.15-2.47,0-4.02-1.32-3.99-4.07l.03-7.17h-2.42v-1.91h2.42l.03-4.47h2.21l-.03,4.47h3.48v1.91h-3.48l-.05,6.74c0,1.68.76,2.52,2.29,2.52.33,0,.76-.05,1.27-.13Z"></path>
          <path class="cls-1" d="M291.48,118.59l-2.19.13c-.18-1.45-1.04-2.16-2.64-2.14-1.6-.03-2.47.69-2.47,1.88,0,.56.23.99.66,1.22.3.13.41.2.79.31l.48.13c.23.03.87.18,1.14.26,3.08.74,4.5,1.6,4.5,3.74,0,2.54-1.88,4.02-4.91,4.02s-4.81-1.42-5.14-3.94l2.19-.15c.2,1.45,1.19,2.19,3,2.19,1.63,0,2.67-.69,2.67-1.93,0-.64-.23-1.07-.66-1.32-.43-.28-1.27-.56-2.54-.86l-1.45-.36c-.33-.1-.74-.25-1.17-.43-1.22-.51-1.65-1.3-1.78-2.82,0-2.31,1.78-3.81,4.75-3.79,2.77-.03,4.45,1.55,4.75,3.89Z"></path>
        </g>
        <g>
          <path class="cls-1" d="M266.79,35.55c18,0,29.63,13.08,29.63,29.23s-11.63,29.23-29.63,29.23-29.63-13.08-29.63-29.23,11.63-29.23,29.63-29.23ZM266.79,83.83c10.42,0,18.09-8.15,18.09-19.05s-7.67-19.05-18.09-19.05-18.09,8.15-18.09,19.05,7.67,19.05,18.09,19.05Z"></path>
          <path class="cls-1" d="M308.03,36.52l13.64,45.54c.24.73.73,1.05,1.37,1.05s1.13-.32,1.37-1.05l14.13-45.54h12.27l-16.79,50.22c-1.7,4.84-6.06,7.27-10.98,7.27s-9.2-2.26-10.98-7.19l-16.87-50.3h12.84Z"></path>
          <rect class="cls-1" x="355.31" y="36.52" width="11.55" height="56.52"></rect>
          <path class="cls-1" d="M219.29,35.68h11.58v40.74c0,9.31-6.8,16.93-16.93,16.93s-16.85-7.61-16.85-16.93v-26.16c0-2.92-2.43-5.35-5.35-5.35s-5.26,2.43-5.26,5.35v42.12h-11.58v-40.74c0-9.31,6.72-16.93,16.85-16.93s16.93,7.61,16.93,16.93v26.16c0,2.92,2.35,5.35,5.26,5.35s5.35-2.43,5.35-5.35v-42.12Z"></path>
          <g>
            <path class="cls-1" d="M381.66,41.27h-1.2v1.77h1.2c.49,0,.9-.33.9-.93,0-.52-.43-.84-.9-.84Z"></path>
            <path class="cls-1" d="M381.4,37.14c-3.28,0-5.93,2.66-5.93,5.94s2.66,5.94,5.93,5.94,5.94-2.66,5.94-5.94-2.66-5.94-5.94-5.94ZM384.32,46.19h-.89c-.51,0-.92-.29-1.15-.67l-.69-1.2h-1.13v1.87h-1.44v-6.21h2.79c1.2,0,2.2.89,2.2,2.13,0,.82-.43,1.48-1.07,1.85l.56.92c.05.06.11.13.21.13h.61v1.18Z"></path>
          </g>
        </g>
      </g>
    </g>
  </g>
</svg>